<mxfile host="app.diagrams.net" modified="2024-03-04T08:58:51.945Z" agent="Mozilla/5.0 (Macintosh; Intel Mac OS X 10_15_7) AppleWebKit/537.36 (KHTML, like Gecko) Chrome/122.0.0.0 Safari/537.36" etag="b7RiySAqJwuq2l2UWTcl" version="22.1.16" type="github">
  <diagram name="第 1 页" id="FV1U8RVel5vk3PvPD4CZ">
    <mxGraphModel dx="2074" dy="1026" grid="1" gridSize="10" guides="1" tooltips="1" connect="1" arrows="1" fold="1" page="1" pageScale="1" pageWidth="827" pageHeight="1169" math="0" shadow="0">
      <root>
        <mxCell id="0" />
        <mxCell id="1" parent="0" />
        <mxCell id="i66OuJknFUiWzIPDlY1z-20" style="edgeStyle=orthogonalEdgeStyle;rounded=0;sketch=1;hachureGap=4;jiggle=2;curveFitting=1;orthogonalLoop=1;jettySize=auto;html=1;entryX=0.5;entryY=0;entryDx=0;entryDy=0;fontFamily=Architects Daughter;fontSource=https%3A%2F%2Ffonts.googleapis.com%2Fcss%3Ffamily%3DArchitects%2BDaughter;fontSize=16;" edge="1" parent="1" source="i66OuJknFUiWzIPDlY1z-1" target="i66OuJknFUiWzIPDlY1z-4">
          <mxGeometry relative="1" as="geometry" />
        </mxCell>
        <mxCell id="i66OuJknFUiWzIPDlY1z-1" value="Conv(1, 32)" style="shape=cube;whiteSpace=wrap;html=1;boundedLbl=1;backgroundOutline=1;darkOpacity=0.05;darkOpacity2=0.1;sketch=1;hachureGap=4;jiggle=2;curveFitting=1;fontFamily=Architects Daughter;fontSource=https%3A%2F%2Ffonts.googleapis.com%2Fcss%3Ffamily%3DArchitects%2BDaughter;fontSize=17;rotation=0;labelBackgroundColor=none;fillStyle=auto;shadow=0;fillColor=#dae8fc;gradientColor=#7ea6e0;strokeColor=#6c8ebf;" vertex="1" parent="1">
          <mxGeometry x="109" y="90" width="175" height="40" as="geometry" />
        </mxCell>
        <mxCell id="i66OuJknFUiWzIPDlY1z-2" value="128 x 128 x 128" style="rounded=1;whiteSpace=wrap;html=1;sketch=1;hachureGap=4;jiggle=2;curveFitting=1;fontFamily=Architects Daughter;fontSource=https%3A%2F%2Ffonts.googleapis.com%2Fcss%3Ffamily%3DArchitects%2BDaughter;fontSize=17;labelBackgroundColor=none;fillColor=#eeeeee;strokeColor=#36393d;" vertex="1" parent="1">
          <mxGeometry x="116" y="10" width="150" height="30" as="geometry" />
        </mxCell>
        <mxCell id="i66OuJknFUiWzIPDlY1z-3" value="Input" style="text;html=1;align=center;verticalAlign=middle;resizable=0;points=[];autosize=1;strokeColor=none;fillColor=none;fontSize=17;fontFamily=Architects Daughter;fontSource=https%3A%2F%2Ffonts.googleapis.com%2Fcss%3Ffamily%3DArchitects%2BDaughter;labelBackgroundColor=none;" vertex="1" parent="1">
          <mxGeometry x="40" y="10" width="60" height="30" as="geometry" />
        </mxCell>
        <mxCell id="i66OuJknFUiWzIPDlY1z-22" style="edgeStyle=orthogonalEdgeStyle;rounded=0;sketch=1;hachureGap=4;jiggle=2;curveFitting=1;orthogonalLoop=1;jettySize=auto;html=1;exitX=0.5;exitY=1;exitDx=0;exitDy=0;entryX=0.5;entryY=0;entryDx=0;entryDy=0;fontFamily=Architects Daughter;fontSource=https%3A%2F%2Ffonts.googleapis.com%2Fcss%3Ffamily%3DArchitects%2BDaughter;fontSize=16;" edge="1" parent="1" source="i66OuJknFUiWzIPDlY1z-4" target="i66OuJknFUiWzIPDlY1z-5">
          <mxGeometry relative="1" as="geometry" />
        </mxCell>
        <mxCell id="i66OuJknFUiWzIPDlY1z-4" value="BatchNorm3D" style="rounded=0;whiteSpace=wrap;html=1;sketch=1;hachureGap=4;jiggle=2;curveFitting=1;fontFamily=Architects Daughter;fontSource=https%3A%2F%2Ffonts.googleapis.com%2Fcss%3Ffamily%3DArchitects%2BDaughter;fontSize=17;labelBackgroundColor=none;" vertex="1" parent="1">
          <mxGeometry x="111.5" y="180" width="170" height="30" as="geometry" />
        </mxCell>
        <mxCell id="i66OuJknFUiWzIPDlY1z-5" value="Relu" style="rounded=0;whiteSpace=wrap;html=1;sketch=1;hachureGap=4;jiggle=2;curveFitting=1;fontFamily=Architects Daughter;fontSource=https%3A%2F%2Ffonts.googleapis.com%2Fcss%3Ffamily%3DArchitects%2BDaughter;fontSize=17;labelBackgroundColor=none;fillColor=#f5f5f5;gradientColor=#b3b3b3;strokeColor=#666666;" vertex="1" parent="1">
          <mxGeometry x="105" y="250" width="185" height="30" as="geometry" />
        </mxCell>
        <mxCell id="i66OuJknFUiWzIPDlY1z-6" value="Conv(32, 64)" style="shape=cube;whiteSpace=wrap;html=1;boundedLbl=1;backgroundOutline=1;darkOpacity=0.05;darkOpacity2=0.1;sketch=1;hachureGap=4;jiggle=2;curveFitting=1;fontFamily=Architects Daughter;fontSource=https%3A%2F%2Ffonts.googleapis.com%2Fcss%3Ffamily%3DArchitects%2BDaughter;fontSize=17;rotation=0;labelBackgroundColor=none;fillColor=#dae8fc;gradientColor=#7ea6e0;strokeColor=#6c8ebf;" vertex="1" parent="1">
          <mxGeometry x="111.5" y="320" width="175" height="40" as="geometry" />
        </mxCell>
        <mxCell id="i66OuJknFUiWzIPDlY1z-7" value="layer2" style="rounded=1;whiteSpace=wrap;html=1;sketch=1;hachureGap=4;jiggle=2;curveFitting=1;fontFamily=Architects Daughter;fontSource=https%3A%2F%2Ffonts.googleapis.com%2Fcss%3Ffamily%3DArchitects%2BDaughter;fontSize=17;labelBackgroundColor=none;fillColor=#f8cecc;gradientColor=#ea6b66;strokeColor=#b85450;" vertex="1" parent="1">
          <mxGeometry x="119" y="390" width="157" height="50" as="geometry" />
        </mxCell>
        <mxCell id="i66OuJknFUiWzIPDlY1z-26" style="edgeStyle=orthogonalEdgeStyle;rounded=0;sketch=1;hachureGap=4;jiggle=2;curveFitting=1;orthogonalLoop=1;jettySize=auto;html=1;entryX=0.5;entryY=0;entryDx=0;entryDy=0;fontFamily=Architects Daughter;fontSource=https%3A%2F%2Ffonts.googleapis.com%2Fcss%3Ffamily%3DArchitects%2BDaughter;fontSize=16;" edge="1" parent="1" source="i66OuJknFUiWzIPDlY1z-8" target="i66OuJknFUiWzIPDlY1z-9">
          <mxGeometry relative="1" as="geometry" />
        </mxCell>
        <mxCell id="i66OuJknFUiWzIPDlY1z-8" value="Conv(64, 64)" style="shape=cube;whiteSpace=wrap;html=1;boundedLbl=1;backgroundOutline=1;darkOpacity=0.05;darkOpacity2=0.1;sketch=1;hachureGap=4;jiggle=2;curveFitting=1;fontFamily=Architects Daughter;fontSource=https%3A%2F%2Ffonts.googleapis.com%2Fcss%3Ffamily%3DArchitects%2BDaughter;fontSize=17;rotation=0;labelBackgroundColor=none;fillColor=#dae8fc;gradientColor=#7ea6e0;strokeColor=#6c8ebf;" vertex="1" parent="1">
          <mxGeometry x="105" y="470" width="175" height="50" as="geometry" />
        </mxCell>
        <mxCell id="i66OuJknFUiWzIPDlY1z-9" value="layer6" style="rounded=1;whiteSpace=wrap;html=1;sketch=1;hachureGap=4;jiggle=2;curveFitting=1;fontFamily=Architects Daughter;fontSource=https%3A%2F%2Ffonts.googleapis.com%2Fcss%3Ffamily%3DArchitects%2BDaughter;fontSize=17;labelBackgroundColor=none;fillColor=#f8cecc;gradientColor=#ea6b66;strokeColor=#b85450;" vertex="1" parent="1">
          <mxGeometry x="115.5" y="560" width="157" height="50" as="geometry" />
        </mxCell>
        <mxCell id="i66OuJknFUiWzIPDlY1z-28" value="" style="edgeStyle=orthogonalEdgeStyle;rounded=0;sketch=1;hachureGap=4;jiggle=2;curveFitting=1;orthogonalLoop=1;jettySize=auto;html=1;fontFamily=Architects Daughter;fontSource=https%3A%2F%2Ffonts.googleapis.com%2Fcss%3Ffamily%3DArchitects%2BDaughter;fontSize=16;" edge="1" parent="1" source="i66OuJknFUiWzIPDlY1z-10" target="i66OuJknFUiWzIPDlY1z-11">
          <mxGeometry relative="1" as="geometry" />
        </mxCell>
        <mxCell id="i66OuJknFUiWzIPDlY1z-10" value="Conv(64, 128)" style="shape=cube;whiteSpace=wrap;html=1;boundedLbl=1;backgroundOutline=1;darkOpacity=0.05;darkOpacity2=0.1;sketch=1;hachureGap=4;jiggle=2;curveFitting=1;fontFamily=Architects Daughter;fontSource=https%3A%2F%2Ffonts.googleapis.com%2Fcss%3Ffamily%3DArchitects%2BDaughter;fontSize=17;rotation=0;labelBackgroundColor=none;fillColor=#dae8fc;gradientColor=#7ea6e0;strokeColor=#6c8ebf;" vertex="1" parent="1">
          <mxGeometry x="100" y="640" width="175" height="40" as="geometry" />
        </mxCell>
        <mxCell id="i66OuJknFUiWzIPDlY1z-29" value="" style="edgeStyle=orthogonalEdgeStyle;rounded=0;sketch=1;hachureGap=4;jiggle=2;curveFitting=1;orthogonalLoop=1;jettySize=auto;html=1;fontFamily=Architects Daughter;fontSource=https%3A%2F%2Ffonts.googleapis.com%2Fcss%3Ffamily%3DArchitects%2BDaughter;fontSize=16;" edge="1" parent="1" source="i66OuJknFUiWzIPDlY1z-11" target="i66OuJknFUiWzIPDlY1z-14">
          <mxGeometry relative="1" as="geometry" />
        </mxCell>
        <mxCell id="i66OuJknFUiWzIPDlY1z-11" value="Conv(128, 128)" style="shape=cube;whiteSpace=wrap;html=1;boundedLbl=1;backgroundOutline=1;darkOpacity=0.05;darkOpacity2=0.1;sketch=1;hachureGap=4;jiggle=2;curveFitting=1;fontFamily=Architects Daughter;fontSource=https%3A%2F%2Ffonts.googleapis.com%2Fcss%3Ffamily%3DArchitects%2BDaughter;fontSize=17;rotation=0;labelBackgroundColor=none;fillColor=#dae8fc;gradientColor=#7ea6e0;strokeColor=#6c8ebf;" vertex="1" parent="1">
          <mxGeometry x="100" y="720" width="175" height="40" as="geometry" />
        </mxCell>
        <mxCell id="i66OuJknFUiWzIPDlY1z-30" value="" style="edgeStyle=orthogonalEdgeStyle;rounded=0;sketch=1;hachureGap=4;jiggle=2;curveFitting=1;orthogonalLoop=1;jettySize=auto;html=1;fontFamily=Architects Daughter;fontSource=https%3A%2F%2Ffonts.googleapis.com%2Fcss%3Ffamily%3DArchitects%2BDaughter;fontSize=16;" edge="1" parent="1" source="i66OuJknFUiWzIPDlY1z-14" target="i66OuJknFUiWzIPDlY1z-15">
          <mxGeometry relative="1" as="geometry" />
        </mxCell>
        <mxCell id="i66OuJknFUiWzIPDlY1z-14" value="AdaptiveAvgPool3D" style="rounded=1;whiteSpace=wrap;html=1;sketch=1;hachureGap=4;jiggle=2;curveFitting=1;fontFamily=Architects Daughter;fontSource=https%3A%2F%2Ffonts.googleapis.com%2Fcss%3Ffamily%3DArchitects%2BDaughter;fontSize=17;labelBackgroundColor=none;fillColor=#d5e8d4;gradientColor=#97d077;strokeColor=#82b366;" vertex="1" parent="1">
          <mxGeometry x="81.5" y="800" width="217" height="50" as="geometry" />
        </mxCell>
        <mxCell id="i66OuJknFUiWzIPDlY1z-31" value="" style="edgeStyle=orthogonalEdgeStyle;rounded=0;sketch=1;hachureGap=4;jiggle=2;curveFitting=1;orthogonalLoop=1;jettySize=auto;html=1;fontFamily=Architects Daughter;fontSource=https%3A%2F%2Ffonts.googleapis.com%2Fcss%3Ffamily%3DArchitects%2BDaughter;fontSize=16;" edge="1" parent="1" source="i66OuJknFUiWzIPDlY1z-15" target="i66OuJknFUiWzIPDlY1z-18">
          <mxGeometry relative="1" as="geometry" />
        </mxCell>
        <mxCell id="i66OuJknFUiWzIPDlY1z-15" value="&lt;div style=&quot;text-align: left; font-size: 17px;&quot;&gt;&lt;span style=&quot;font-size: 17px;&quot;&gt;view(x.size(&lt;/span&gt;&lt;font style=&quot;font-size: 17px;&quot;&gt;0), -1)&lt;/font&gt;&lt;/div&gt;" style="rounded=1;whiteSpace=wrap;html=1;sketch=1;hachureGap=4;jiggle=2;curveFitting=1;fontFamily=Architects Daughter;fontSource=https%3A%2F%2Ffonts.googleapis.com%2Fcss%3Ffamily%3DArchitects%2BDaughter;fontSize=17;labelBackgroundColor=none;" vertex="1" parent="1">
          <mxGeometry x="81.5" y="900" width="217" height="50" as="geometry" />
        </mxCell>
        <mxCell id="i66OuJknFUiWzIPDlY1z-17" value="Relu" style="rounded=0;whiteSpace=wrap;html=1;sketch=1;hachureGap=4;jiggle=2;curveFitting=1;fontFamily=Architects Daughter;fontSource=https%3A%2F%2Ffonts.googleapis.com%2Fcss%3Ffamily%3DArchitects%2BDaughter;fontSize=17;labelBackgroundColor=none;fillColor=#f5f5f5;gradientColor=#b3b3b3;strokeColor=#666666;" vertex="1" parent="1">
          <mxGeometry x="105" y="989" width="170" height="30" as="geometry" />
        </mxCell>
        <mxCell id="i66OuJknFUiWzIPDlY1z-18" value="&lt;h3 style=&quot;font-size: 17px;&quot;&gt;&lt;font style=&quot;font-size: 17px;&quot;&gt;Linear(128, 3)&lt;/font&gt;&lt;/h3&gt;" style="rounded=0;whiteSpace=wrap;html=1;sketch=1;hachureGap=4;jiggle=2;curveFitting=1;fontFamily=Architects Daughter;fontSource=https%3A%2F%2Ffonts.googleapis.com%2Fcss%3Ffamily%3DArchitects%2BDaughter;labelBackgroundColor=none;fontSize=17;" vertex="1" parent="1">
          <mxGeometry x="105" y="1060" width="170" height="30" as="geometry" />
        </mxCell>
        <mxCell id="i66OuJknFUiWzIPDlY1z-19" style="edgeStyle=orthogonalEdgeStyle;rounded=0;sketch=1;hachureGap=4;jiggle=2;curveFitting=1;orthogonalLoop=1;jettySize=auto;html=1;exitX=0.5;exitY=1;exitDx=0;exitDy=0;entryX=0.471;entryY=-0.075;entryDx=0;entryDy=0;entryPerimeter=0;fontFamily=Architects Daughter;fontSource=https%3A%2F%2Ffonts.googleapis.com%2Fcss%3Ffamily%3DArchitects%2BDaughter;fontSize=16;" edge="1" parent="1" source="i66OuJknFUiWzIPDlY1z-2" target="i66OuJknFUiWzIPDlY1z-1">
          <mxGeometry relative="1" as="geometry" />
        </mxCell>
        <mxCell id="i66OuJknFUiWzIPDlY1z-23" style="edgeStyle=orthogonalEdgeStyle;rounded=0;sketch=1;hachureGap=4;jiggle=2;curveFitting=1;orthogonalLoop=1;jettySize=auto;html=1;exitX=0.5;exitY=1;exitDx=0;exitDy=0;entryX=0.496;entryY=-0.053;entryDx=0;entryDy=0;entryPerimeter=0;fontFamily=Architects Daughter;fontSource=https%3A%2F%2Ffonts.googleapis.com%2Fcss%3Ffamily%3DArchitects%2BDaughter;fontSize=16;" edge="1" parent="1" source="i66OuJknFUiWzIPDlY1z-5" target="i66OuJknFUiWzIPDlY1z-6">
          <mxGeometry relative="1" as="geometry" />
        </mxCell>
        <mxCell id="i66OuJknFUiWzIPDlY1z-24" style="edgeStyle=orthogonalEdgeStyle;rounded=0;sketch=1;hachureGap=4;jiggle=2;curveFitting=1;orthogonalLoop=1;jettySize=auto;html=1;exitX=0;exitY=0;exitDx=97.5;exitDy=40;exitPerimeter=0;entryX=0.549;entryY=-0.008;entryDx=0;entryDy=0;entryPerimeter=0;fontFamily=Architects Daughter;fontSource=https%3A%2F%2Ffonts.googleapis.com%2Fcss%3Ffamily%3DArchitects%2BDaughter;fontSize=16;" edge="1" parent="1" source="i66OuJknFUiWzIPDlY1z-6" target="i66OuJknFUiWzIPDlY1z-7">
          <mxGeometry relative="1" as="geometry" />
        </mxCell>
        <mxCell id="i66OuJknFUiWzIPDlY1z-25" style="edgeStyle=orthogonalEdgeStyle;rounded=0;sketch=1;hachureGap=4;jiggle=2;curveFitting=1;orthogonalLoop=1;jettySize=auto;html=1;exitX=0.5;exitY=1;exitDx=0;exitDy=0;entryX=0.536;entryY=-0.054;entryDx=0;entryDy=0;entryPerimeter=0;fontFamily=Architects Daughter;fontSource=https%3A%2F%2Ffonts.googleapis.com%2Fcss%3Ffamily%3DArchitects%2BDaughter;fontSize=16;" edge="1" parent="1" source="i66OuJknFUiWzIPDlY1z-7" target="i66OuJknFUiWzIPDlY1z-8">
          <mxGeometry relative="1" as="geometry" />
        </mxCell>
        <mxCell id="i66OuJknFUiWzIPDlY1z-27" style="edgeStyle=orthogonalEdgeStyle;rounded=0;sketch=1;hachureGap=4;jiggle=2;curveFitting=1;orthogonalLoop=1;jettySize=auto;html=1;exitX=0.5;exitY=1;exitDx=0;exitDy=0;entryX=0.536;entryY=0.25;entryDx=0;entryDy=0;entryPerimeter=0;fontFamily=Architects Daughter;fontSource=https%3A%2F%2Ffonts.googleapis.com%2Fcss%3Ffamily%3DArchitects%2BDaughter;fontSize=16;" edge="1" parent="1" source="i66OuJknFUiWzIPDlY1z-9" target="i66OuJknFUiWzIPDlY1z-10">
          <mxGeometry relative="1" as="geometry" />
        </mxCell>
      </root>
    </mxGraphModel>
  </diagram>
</mxfile>
